<?xml version="1.0" encoding="utf-8"?>
<!-- Generator: Adobe Illustrator 25.4.1, SVG Export Plug-In . SVG Version: 6.00 Build 0)  -->
<svg version="1.1" id="Capa_1" xmlns="http://www.w3.org/2000/svg" xmlns:xlink="http://www.w3.org/1999/xlink" x="0px" y="0px"
	 viewBox="0 0 395 321" style="enable-background:new 0 0 395 321;" xml:space="preserve">
<style type="text/css">
	.st0{fill:#E5E5E5;}
	.st1{fill-rule:evenodd;clip-rule:evenodd;fill:#7F3AEE;}
</style>
<path class="st0" d="M0,0h395v321H0V0z"/>
<polygon class="st1" points="65,118.4 77.1,118.4 77.1,106.3 89.1,106.3 89.1,82.2 101.2,82.2 101.2,70.1 113.3,70.1 113.3,58.1 
	125.3,58.1 125.3,46 149.5,46 149.5,58.1 161.5,58.1 161.5,70.1 173.6,70.1 173.6,82.2 197.7,82.2 197.7,94.3 209.8,94.3 
	210.4,106.3 221.9,106.3 221.9,118.4 234,118.4 234,130.5 246,130.5 246,142.5 258.1,142.5 258.1,154.6 270.2,154.6 270.2,166.7 
	294.3,166.7 294.3,178.7 306.4,178.7 306.4,190.8 318.4,190.8 318.4,202.9 330.5,202.9 330.5,215 318.4,215 318.4,227 306.4,227 
	306.4,275.3 149.5,275.3 149.5,130.5 65,130.5 "/>
</svg>
