<?xml version="1.0" encoding="utf-8"?>
<!-- Generator: Adobe Illustrator 25.4.1, SVG Export Plug-In . SVG Version: 6.00 Build 0)  -->
<svg version="1.1" id="Capa_1" xmlns="http://www.w3.org/2000/svg" xmlns:xlink="http://www.w3.org/1999/xlink" x="0px" y="0px"
	 viewBox="0 0 517 321" style="enable-background:new 0 0 517 321;" xml:space="preserve">
<style type="text/css">
	.st0{fill:#F4F4F4;}
	.st1{fill:#66CC99;}
</style>
<path class="st0" d="M0,0h517v321H0V0z"/>
<path class="st1" d="M344.2,73.7h-24.7V49h-24.7h-49.4h-49.4v24.7h-24.7v24.7l-24.7,0V123v24.7v49.4v24.7h24.7v24.7h24.7l0,24.7
	h49.4h49.4h24.7v-24.7h24.7v-24.7h24.7v-24.7v-49.4V123V98.4l-24.7,0V73.7z M319.5,147.7l-24.7,0V123h24.7V147.7z M196.1,147.7V123
	h24.7v24.7L196.1,147.7 M196.1,172.4h24.7v24.7h24.7h49.4v-24.7h24.7v24.7l-24.7,0v24.7h-49.4l-24.7,0v-24.7h-24.7L196.1,172.4z"/>
<rect x="394.5" y="73.7" class="st1" width="24.7" height="24.7"/>
<rect x="98" y="246.6" class="st1" width="24.7" height="24.7"/>
<polygon class="st1" points="122,73.7 97.4,73.7 97.4,49 72.7,49 72.7,73.7 48,73.7 48,98.4 72.7,98.4 72.7,123 97.4,123 97.4,98.4 
	122,98.4 "/>
<polygon class="st1" points="443.8,221.8 443.8,197.1 419.2,197.1 419.2,221.8 394.5,221.8 394.5,246.4 419.2,246.4 419.2,271.1 
	443.8,271.1 443.8,246.4 468.5,246.4 468.5,221.8 "/>
</svg>
