<?xml version="1.0" encoding="utf-8"?>
<!-- Generator: Adobe Illustrator 25.4.1, SVG Export Plug-In . SVG Version: 6.00 Build 0)  -->
<svg version="1.1" id="Capa_1" xmlns="http://www.w3.org/2000/svg" xmlns:xlink="http://www.w3.org/1999/xlink" x="0px" y="0px"
	 viewBox="0 0 395 321" style="enable-background:new 0 0 395 321;" xml:space="preserve">
<style type="text/css">
	.st0{fill:#E5E5E5;}
	.st1{fill-rule:evenodd;clip-rule:evenodd;fill:#7F3AEE;}
</style>
<rect y="0" class="st0" width="395" height="321"/>
<polygon class="st1" points="125.1,70 137.2,70 137.2,57.9 149.2,57.9 149.2,45.9 197.5,45.9 197.5,57.9 257.8,57.9 257.8,94.1 
	269.9,94.1 269.9,118.3 257.8,118.3 257.8,142.4 245.8,142.4 245.8,154.5 257.8,154.5 257.8,178.6 269.9,178.6 269.9,202.7 
	257.8,202.7 257.8,214.8 245.8,214.8 245.8,238.9 233.7,238.9 233.7,251 209.6,251 209.6,275.1 149.2,275.1 149.2,166.5 
	137.2,166.5 137.2,154.5 125.1,154.5 "/>
</svg>
