<svg width="33" height="32" viewBox="0 0 33 32" fill="none" xmlns="http://www.w3.org/2000/svg">
<path d="M6.0256 0C2.68769 0 0 2.60623 0 5.843V26.157C0 29.3937 2.68769 32 6.0256 32H17.3797V19.49H13.9683V14.986H17.3797V11.138C17.3797 8.1148 19.3953 5.339 24.0385 5.339C25.9184 5.339 27.3086 5.51401 27.3086 5.51401L27.1992 9.72001C27.1992 9.72001 25.7814 9.70702 24.2344 9.70702C22.56 9.70702 22.2915 10.4551 22.2915 11.697V14.986H27.3323L27.1126 19.49H22.2915V32H26.9744C30.3123 32 33 29.3938 33 26.157V5.84303C33 2.60627 30.3123 3.19999e-05 26.9744 3.19999e-05L6.0256 0Z" fill="#F4F4F4"/>
</svg>
