<?xml version="1.0" encoding="utf-8"?>
<!-- Generator: Adobe Illustrator 25.4.1, SVG Export Plug-In . SVG Version: 6.00 Build 0)  -->
<svg version="1.1" id="Capa_1" xmlns="http://www.w3.org/2000/svg" xmlns:xlink="http://www.w3.org/1999/xlink" x="0px" y="0px"
	 viewBox="0 0 630 630" style="enable-background:new 0 0 630 630;" xml:space="preserve">
<style type="text/css">
	.st0{fill:#F4F4F4;}
</style>
<g>
	<polygon class="st0" points="560,0 490,0 420,0 350,0 280,0 210,0 140,0 70,0 0,0 0,70 0,140 0,210 70,210 70,140 70,70 140,70 
		210,70 280,70 350,70 420,70 490,70 560,70 560,140 560,210 560,280 560,350 560,420 560,490 560,560 490,560 420,560 350,560 
		280,560 210,560 140,560 70,560 70,490 70,420 0,420 0,490 0,560 0,630 70,630 140,630 210,630 280,630 350,630 420,630 490,630 
		560,630 630,630 630,560 630,490 630,420 630,350 630,280 630,210 630,140 630,70 630,0 	"/>
	<rect x="280" y="140" class="st0" width="70" height="70"/>
	<polygon class="st0" points="140,350 210,350 280,350 350,350 350,420 420,420 420,350 490,350 490,280 420,280 420,210 350,210 
		350,280 280,280 210,280 140,280 70,280 0,280 0,350 70,350 	"/>
	<rect x="280" y="420" class="st0" width="70" height="70"/>
</g>
</svg>
