<?xml version="1.0" encoding="utf-8"?>
<!-- Generator: Adobe Illustrator 25.4.1, SVG Export Plug-In . SVG Version: 6.00 Build 0)  -->
<svg version="1.1" id="Capa_1" xmlns="http://www.w3.org/2000/svg" xmlns:xlink="http://www.w3.org/1999/xlink" x="0px" y="0px"
	 viewBox="0 0 518 321" style="enable-background:new 0 0 518 321;" xml:space="preserve">
<style type="text/css">
	.st0{fill:#F4F4F4;}
	.st1{fill:#66CC99;}
</style>
<path class="st0" d="M0,0h518v321H0V0z"/>
<polyline class="st1" points="147.7,197.1 197.1,197.1 197.1,221.8 197.1,246.4 197.1,271.1 246.5,271.1 295.8,271.1 369.9,271.1 
	419.2,271.1 468.6,271.1 468.6,246.4 419.2,246.4 419.2,221.8 419.2,197.1 419.2,197.1 419.2,197.1 443.9,197.1 443.9,172.4 
	468.6,172.4 468.6,147.7 468.6,123 468.6,98.4 443.9,98.4 443.9,73.7 419.2,73.7 369.9,73.7 369.9,98.4 345.2,98.4 345.2,123 
	345.2,147.7 345.2,172.4 369.9,172.4 369.9,197.1 394.5,197.1 394.5,221.8 394.5,246.4 369.9,246.4 320.5,246.4 320.5,221.8 
	320.5,172.4 320.5,147.7 295.8,147.7 295.8,123 271.1,123 271.1,98.4 246.5,98.4 246.5,73.7 221.8,73.7 221.8,49 197.1,49 
	197.1,73.7 172.4,73.7 172.4,98.4 147.7,98.4 147.7,123 123,123 123,147.7 98.4,147.7 98.4,172.4 98.4,221.8 98.4,246 49,246 
	49,271 73.7,271 73.7,271.1 147.7,271.1 147.7,221.8 147.7,197.1 147.7,197.1 "/>
</svg>
