<?xml version="1.0" encoding="utf-8"?>
<!-- Generator: Adobe Illustrator 25.4.1, SVG Export Plug-In . SVG Version: 6.00 Build 0)  -->
<svg version="1.1" id="Capa_1" xmlns="http://www.w3.org/2000/svg" xmlns:xlink="http://www.w3.org/1999/xlink" x="0px" y="0px"
	 viewBox="0 0 48 48" style="enable-background:new 0 0 48 48;" xml:space="preserve">
<style type="text/css">
	.st0{fill:#7F3AEE;}
</style>
<path class="st0" d="M12,28h15.6v-3H12V28z M12,21.5h24v-3H12V21.5z M12,15.1h24v-3H12V15.1z M4,44V7c0-0.8,0.3-1.5,0.9-2.1
	S6.2,4,7,4h34c0.8,0,1.5,0.3,2.1,0.9C43.7,5.5,44,6.2,44,7v26c0,0.8-0.3,1.5-0.9,2.1C42.5,35.7,41.8,36,41,36H12L4,44z M7,36.8
	l3.8-3.8H41l0,0l0,0V7l0,0l0,0H7l0,0l0,0V36.8z M7,7L7,7L7,7L7,7L7,7v26l0,0l0,0v3.8V7z"/>
</svg>
