<?xml version="1.0" encoding="utf-8"?>
<!-- Generator: Adobe Illustrator 25.4.1, SVG Export Plug-In . SVG Version: 6.00 Build 0)  -->
<svg version="1.1" id="Capa_1" xmlns="http://www.w3.org/2000/svg" xmlns:xlink="http://www.w3.org/1999/xlink" x="0px" y="0px"
	 viewBox="0 0 24 24" style="enable-background:new 0 0 24 24;" xml:space="preserve">
<style type="text/css">
	.st0{fill:#F4F4F4;}
</style>
<g>
	<g>
		<path class="st0" d="M12,2C6.5,2,2,6.5,2,12s4.5,10,10,10s10-4.5,10-10S17.5,2,12,2z M7.3,18.5C8.7,17.6,10.3,17,12,17
			s3.3,0.6,4.6,1.5C15.3,19.4,13.7,20,12,20S8.7,19.4,7.3,18.5z M18.1,17.1L18.1,17.1C16.5,15.8,14.3,15,12,15s-4.4,0.8-6.1,2.1l0,0
			C4.7,15.7,4,13.9,4,12c0-4.4,3.6-8,8-8s8,3.6,8,8C20,13.9,19.3,15.7,18.1,17.1z"/>
		<path class="st0" d="M12,6c-1.9,0-3.5,1.6-3.5,3.5S10.1,13,12,13s3.5-1.6,3.5-3.5S13.9,6,12,6z M12,11c-0.8,0-1.5-0.7-1.5-1.5
			S11.2,8,12,8s1.5,0.7,1.5,1.5S12.8,11,12,11z"/>
	</g>
</g>
</svg>
