<?xml version="1.0" encoding="utf-8"?>
<!-- Generator: Adobe Illustrator 25.4.1, SVG Export Plug-In . SVG Version: 6.00 Build 0)  -->
<svg version="1.1" id="Capa_1" xmlns="http://www.w3.org/2000/svg" xmlns:xlink="http://www.w3.org/1999/xlink" x="0px" y="0px"
	 viewBox="0 0 55.6 55.6" style="enable-background:new 0 0 55.6 55.6;" xml:space="preserve">
<style type="text/css">
	.st0{fill:#7F3AEE;}
	.st1{fill:#F4F4F4;}
</style>
<rect y="0" class="st0" width="55.6" height="55.6"/>
<path class="st1" d="M27.8,38.5c2.4,0,4.4-0.8,6-2.5c1.6-1.6,2.5-3.7,2.5-6.1s-0.8-4.4-2.5-6c-1.6-1.6-3.6-2.4-6-2.4
	s-4.5,0.8-6.1,2.4s-2.4,3.6-2.4,6s0.8,4.5,2.4,6.1C23.3,37.7,25.4,38.5,27.8,38.5z M27.8,35.5c-1.6,0-2.9-0.5-4-1.6
	c-1-1.1-1.5-2.4-1.5-4s0.5-2.9,1.5-3.9s2.4-1.5,4-1.5s2.9,0.5,3.9,1.5c1.1,1,1.6,2.3,1.6,3.9s-0.5,2.9-1.6,4
	C30.7,35,29.4,35.5,27.8,35.5z M10.8,45.8c-0.8,0-1.5-0.3-2.1-0.9c-0.6-0.6-0.9-1.3-0.9-2.1V17.1c0-0.8,0.3-1.5,0.9-2.1
	c0.6-0.6,1.3-0.9,2.1-0.9h7.4l3.6-4.3h12l3.7,4.3h7.3c0.8,0,1.5,0.3,2.1,0.9c0.6,0.6,0.9,1.3,0.9,2.1v25.7c0,0.8-0.3,1.5-0.9,2.1
	c-0.6,0.6-1.3,0.9-2.1,0.9H10.8z M44.8,42.8L44.8,42.8L44.8,42.8V17.1l0,0l0,0H36l-3.6-4.3h-9.2l-3.6,4.4h-8.8l0,0l0,0v25.6l0,0l0,0
	H44.8z M27.8,30L27.8,30L27.8,30L27.8,30L27.8,30L27.8,30L27.8,30L27.8,30L27.8,30z"/>
</svg>
