<svg width="33" height="33" viewBox="0 0 33 33" fill="none" xmlns="http://www.w3.org/2000/svg">
<path d="M16.4956 10.9977C13.4658 10.9977 10.9933 13.4702 10.9933 16.5C10.9933 19.5298 13.4658 22.0023 16.4956 22.0023C19.5253 22.0023 21.9978 19.5298 21.9978 16.5C21.9978 13.4702 19.5253 10.9977 16.4956 10.9977ZM32.9982 16.5C32.9982 14.2215 33.0188 11.9636 32.8908 9.68915C32.7629 7.04736 32.1602 4.70278 30.2285 2.77097C28.2926 0.835041 25.9522 0.236512 23.3104 0.10855C21.0319 -0.0194112 18.7741 0.00122779 16.4997 0.00122779C14.2212 0.00122779 11.9633 -0.0194112 9.68897 0.10855C7.04723 0.236512 4.70269 0.839169 2.77092 2.77097C0.835026 4.70691 0.236507 7.04736 0.108548 9.68915C-0.0194109 11.9677 0.00122776 14.2256 0.00122776 16.5C0.00122776 18.7744 -0.0194109 21.0364 0.108548 23.3109C0.236507 25.9526 0.839153 28.2972 2.77092 30.229C4.70682 32.165 7.04723 32.7635 9.68897 32.8914C11.9675 33.0194 14.2253 32.9988 16.4997 32.9988C18.7782 32.9988 21.036 33.0194 23.3104 32.8914C25.9522 32.7635 28.2967 32.1608 30.2285 30.229C32.1644 28.2931 32.7629 25.9526 32.8908 23.3109C33.0229 21.0364 32.9982 18.7785 32.9982 16.5ZM16.4956 24.9661C11.8106 24.9661 8.02963 21.185 8.02963 16.5C8.02963 11.815 11.8106 8.0339 16.4956 8.0339C21.1805 8.0339 24.9615 11.815 24.9615 16.5C24.9615 21.185 21.1805 24.9661 16.4956 24.9661ZM25.3082 9.66438C24.2144 9.66438 23.3311 8.78103 23.3311 7.68717C23.3311 6.59331 24.2144 5.70996 25.3082 5.70996C26.4021 5.70996 27.2854 6.59331 27.2854 7.68717C27.2857 7.94691 27.2348 8.20417 27.1356 8.4442C27.0363 8.68423 26.8907 8.90233 26.707 9.086C26.5234 9.26966 26.3053 9.41529 26.0653 9.51454C25.8252 9.61379 25.568 9.66471 25.3082 9.66438Z" fill="#F4F4F4"/>
</svg>
