<svg width="520" height="347" viewBox="0 0 520 347" fill="none" xmlns="http://www.w3.org/2000/svg">
<path d="M0 0H519.58V346.91H0V0Z" fill="#7F3AEE"/>
<path d="M469.578 173.373H444.578V198.373H469.578V173.373Z" fill="#F4F4F4"/>
<path d="M469.578 148.605H444.578V173.605H469.578V148.605Z" fill="#66CC99"/>
<path d="M519.578 222.373H494.578V247.373H519.578V222.373Z" fill="#AFAFAF"/>
<path d="M469.578 0H444.578V25H469.578V0Z" fill="#F4F4F4"/>
<path d="M494.578 296.908H469.578V321.908H494.578V296.908Z" fill="#66CC99"/>
<path d="M494.578 74.3027H469.578V99.3027H494.578V74.3027Z" fill="#66CC99"/>
<path d="M420.217 321.908H395.217V346.908H420.217V321.908Z" fill="#2C2C27"/>
<path d="M420.217 99.0703H395.217V124.07H420.217V99.0703Z" fill="#F4F4F4"/>
<path d="M370.854 24.7676H345.854V49.7676H370.854V24.7676Z" fill="#2C2C27"/>
<path d="M346.174 24.7676H321.174V49.7676H346.174V24.7676Z" fill="#AFAFAF"/>
<path d="M247.449 296.908H222.449V321.908H247.449V296.908Z" fill="#AFAFAF"/>
<path d="M272.131 49.5352H247.131V74.5352H272.131V49.5352Z" fill="#66CC99"/>
<path d="M222.768 0H197.768V25H222.768V0Z" fill="#2C2C27"/>
<path d="M173.406 74.3027H148.406V99.3027H173.406V74.3027Z" fill="#66CC99"/>
<path d="M124.043 24.7676H99.043V49.7676H124.043V24.7676Z" fill="#F4F4F4"/>
<path d="M49.6797 173.373H24.6797V198.373H49.6797V173.373Z" fill="#AFAFAF"/>
<path d="M49.6797 321.908H24.6797V346.908H49.6797V321.908Z" fill="#66CC99"/>
<path d="M74.6816 321.908H49.6816V346.908H74.6816V321.908Z" fill="#2C2C27"/>
<path d="M25 271.908H0V296.908H25V271.908Z" fill="#AFAFAF"/>
<path d="M25 74.3027H0V99.3027H25V74.3027Z" fill="#F4F4F4"/>
<path d="M74.6816 0H49.6816V25H74.6816V0Z" fill="#AFAFAF"/>
<path d="M51 180V125.04H65.32V168.24H93.24V180H51Z" fill="#F4F4F4"/>
<path d="M126.422 180.96C120.395 180.96 115.222 179.92 110.902 177.84C106.635 175.707 103.355 172.533 101.062 168.32C98.7685 164.107 97.6219 158.827 97.6219 152.48C97.6219 146.133 98.7685 140.88 101.062 136.72C103.355 132.507 106.635 129.36 110.902 127.28C115.222 125.147 120.395 124.08 126.422 124.08C132.449 124.08 137.595 125.147 141.862 127.28C146.182 129.36 149.489 132.507 151.782 136.72C154.075 140.88 155.222 146.133 155.222 152.48C155.222 158.827 154.075 164.107 151.782 168.32C149.489 172.533 146.182 175.707 141.862 177.84C137.595 179.92 132.449 180.96 126.422 180.96ZM126.422 169.76C128.715 169.76 130.742 169.413 132.502 168.72C134.262 168.027 135.729 167.013 136.902 165.68C138.129 164.347 139.035 162.72 139.622 160.8C140.209 158.88 140.502 156.72 140.502 154.32V150.8C140.502 148.347 140.209 146.16 139.622 144.24C139.035 142.32 138.129 140.693 136.902 139.36C135.729 138.027 134.262 137.013 132.502 136.32C130.742 135.627 128.715 135.28 126.422 135.28C124.075 135.28 122.022 135.627 120.262 136.32C118.502 137.013 117.035 138.027 115.862 139.36C114.689 140.693 113.809 142.32 113.222 144.24C112.635 146.16 112.342 148.347 112.342 150.8V154.32C112.342 156.72 112.635 158.88 113.222 160.8C113.809 162.72 114.689 164.347 115.862 165.68C117.035 167.013 118.502 168.027 120.262 168.72C122.022 169.413 124.075 169.76 126.422 169.76Z" fill="#F4F4F4"/>
<path d="M166.387 180V125.04H180.708V168.24H208.628V180H166.387Z" fill="#F4F4F4"/>
<path d="M217.831 180V125.04H232.151V168.24H260.071V180H217.831Z" fill="#F4F4F4"/>
<path d="M263.915 180L284.555 125.04H301.755L322.395 180H307.115L303.835 170.48H281.915L278.635 180H263.915ZM285.355 159.76H300.315L296.395 148.16C296.182 147.573 295.915 146.853 295.595 146C295.328 145.093 295.035 144.16 294.715 143.2C294.448 142.187 294.182 141.173 293.915 140.16C293.648 139.147 293.382 138.267 293.115 137.52H292.555C292.342 138.533 292.022 139.68 291.595 140.96C291.222 142.24 290.822 143.52 290.395 144.8C290.022 146.08 289.675 147.2 289.355 148.16L285.355 159.76Z" fill="#F4F4F4"/>
<path d="M344.519 163.68V152.72H364.759V163.68H344.519Z" fill="#F4F4F4"/>
<path d="M51 260V205.04H81.24C84.9733 205.04 88.1467 205.813 90.76 207.36C93.4267 208.853 95.4533 210.96 96.84 213.68C98.28 216.347 99 219.493 99 223.12C99 226.853 98.2533 230.08 96.76 232.8C95.32 235.52 93.24 237.653 90.52 239.2C87.8533 240.693 84.6533 241.44 80.92 241.44H65.32V260H51ZM65.32 230.4H77.56C79.8 230.4 81.5067 229.787 82.68 228.56C83.8533 227.28 84.44 225.52 84.44 223.28C84.44 221.68 84.1733 220.373 83.64 219.36C83.16 218.347 82.4133 217.573 81.4 217.04C80.3867 216.453 79.1067 216.16 77.56 216.16H65.32V230.4Z" fill="#F4F4F4"/>
<path d="M99.115 260L119.755 205.04H136.955L157.595 260H142.315L139.035 250.48H117.115L113.835 260H99.115ZM120.555 239.76H135.515L131.595 228.16C131.382 227.573 131.115 226.853 130.795 226C130.528 225.093 130.235 224.16 129.915 223.2C129.648 222.187 129.382 221.173 129.115 220.16C128.848 219.147 128.582 218.267 128.315 217.52H127.755C127.542 218.533 127.222 219.68 126.795 220.96C126.422 222.24 126.022 223.52 125.595 224.8C125.222 226.08 124.875 227.2 124.555 228.16L120.555 239.76Z" fill="#F4F4F4"/>
<path d="M165.762 260V205.04H180.083V248.24H208.003V260H165.762Z" fill="#F4F4F4"/>
<path d="M241.184 260.96C235.158 260.96 229.984 259.92 225.664 257.84C221.398 255.707 218.118 252.533 215.824 248.32C213.531 244.107 212.384 238.827 212.384 232.48C212.384 226.133 213.531 220.88 215.824 216.72C218.118 212.507 221.398 209.36 225.664 207.28C229.984 205.147 235.158 204.08 241.184 204.08C247.211 204.08 252.358 205.147 256.624 207.28C260.944 209.36 264.251 212.507 266.544 216.72C268.838 220.88 269.984 226.133 269.984 232.48C269.984 238.827 268.838 244.107 266.544 248.32C264.251 252.533 260.944 255.707 256.624 257.84C252.358 259.92 247.211 260.96 241.184 260.96ZM241.184 249.76C243.478 249.76 245.504 249.413 247.264 248.72C249.024 248.027 250.491 247.013 251.664 245.68C252.891 244.347 253.798 242.72 254.384 240.8C254.971 238.88 255.264 236.72 255.264 234.32V230.8C255.264 228.347 254.971 226.16 254.384 224.24C253.798 222.32 252.891 220.693 251.664 219.36C250.491 218.027 249.024 217.013 247.264 216.32C245.504 215.627 243.478 215.28 241.184 215.28C238.838 215.28 236.784 215.627 235.024 216.32C233.264 217.013 231.798 218.027 230.624 219.36C229.451 220.693 228.571 222.32 227.984 224.24C227.398 226.16 227.104 228.347 227.104 230.8V234.32C227.104 236.72 227.398 238.88 227.984 240.8C228.571 242.72 229.451 244.347 230.624 245.68C231.798 247.013 233.264 248.027 235.024 248.72C236.784 249.413 238.838 249.76 241.184 249.76Z" fill="#F4F4F4"/>
<path d="M307.55 260.96C301.523 260.96 296.35 259.92 292.03 257.84C287.763 255.707 284.483 252.533 282.19 248.32C279.897 244.107 278.75 238.827 278.75 232.48C278.75 226.133 279.897 220.88 282.19 216.72C284.483 212.507 287.763 209.36 292.03 207.28C296.35 205.147 301.523 204.08 307.55 204.08C313.577 204.08 318.723 205.147 322.99 207.28C327.31 209.36 330.617 212.507 332.91 216.72C335.203 220.88 336.35 226.133 336.35 232.48C336.35 238.827 335.203 244.107 332.91 248.32C330.617 252.533 327.31 255.707 322.99 257.84C318.723 259.92 313.577 260.96 307.55 260.96ZM307.55 249.76C309.843 249.76 311.87 249.413 313.63 248.72C315.39 248.027 316.857 247.013 318.03 245.68C319.257 244.347 320.163 242.72 320.75 240.8C321.337 238.88 321.63 236.72 321.63 234.32V230.8C321.63 228.347 321.337 226.16 320.75 224.24C320.163 222.32 319.257 220.693 318.03 219.36C316.857 218.027 315.39 217.013 313.63 216.32C311.87 215.627 309.843 215.28 307.55 215.28C305.203 215.28 303.15 215.627 301.39 216.32C299.63 217.013 298.163 218.027 296.99 219.36C295.817 220.693 294.937 222.32 294.35 224.24C293.763 226.16 293.47 228.347 293.47 230.8V234.32C293.47 236.72 293.763 238.88 294.35 240.8C294.937 242.72 295.817 244.347 296.99 245.68C298.163 247.013 299.63 248.027 301.39 248.72C303.15 249.413 305.203 249.76 307.55 249.76Z" fill="#F4F4F4"/>
<path d="M342.814 260V254.64L370.094 216.24H344.814V205.04H391.934V210.4L364.654 248.8H392.574V260H342.814Z" fill="#F4F4F4"/>
<path d="M397.506 260L418.146 205.04H435.346L455.986 260H440.706L437.426 250.48H415.506L412.226 260H397.506ZM418.946 239.76H433.906L429.986 228.16C429.772 227.573 429.506 226.853 429.186 226C428.919 225.093 428.626 224.16 428.306 223.2C428.039 222.187 427.772 221.173 427.506 220.16C427.239 219.147 426.972 218.267 426.706 217.52H426.146C425.932 218.533 425.612 219.68 425.186 220.96C424.812 222.24 424.412 223.52 423.986 224.8C423.612 226.08 423.266 227.2 422.946 228.16L418.946 239.76Z" fill="#F4F4F4"/>
</svg>
