<svg width="361" height="86" viewBox="0 0 361 86" fill="none" xmlns="http://www.w3.org/2000/svg">
<rect width="22.5625" height="23.4375" transform="matrix(-1 0 0 1 361 38.4375)" fill="#7F3AEE"/>
<rect width="22.5625" height="23.4375" transform="matrix(1 9.08131e-08 8.4159e-08 -1 45.125 61.875)" fill="#66C399"/>
<rect width="22.5625" height="23.4375" transform="matrix(-1 0 0 1 90.25 38.4375)" fill="#2C2C27"/>
<path d="M293.312 0H270.75V23.4375H293.312V0Z" fill="#2C2C27"/>
<rect width="22.5625" height="23.4375" transform="matrix(1 9.08131e-08 8.4159e-08 -1 135.375 85.4375)" fill="#AFAFAF"/>
<rect width="22.5625" height="23.4375" transform="matrix(-1 0 0 1 22.5625 0)" fill="#7F3AEE"/>
<rect width="22.5625" height="23.4375" transform="matrix(1 9.08131e-08 8.4159e-08 -1 157.938 23.4375)" fill="#66C399"/>
<rect width="22.5625" height="23.4375" transform="matrix(1 9.08131e-08 8.4159e-08 -1 248.188 61.875)" fill="#66C399"/>
</svg>
