<svg width="361" height="85" viewBox="0 0 361 85" fill="none" xmlns="http://www.w3.org/2000/svg">
<rect width="22.5625" height="23.4375" transform="matrix(1 8.19589e-08 9.3251e-08 -1 0 46.5625)" fill="#7F3AEE"/>
<rect width="22.5625" height="23.4375" transform="matrix(-1 -1.72772e-07 -1.7741e-07 1 315.875 23.125)" fill="#66C399"/>
<rect width="22.5625" height="23.4375" transform="matrix(1 8.19589e-08 9.3251e-08 -1 270.75 46.5625)" fill="#2C2C27"/>
<rect width="22.5625" height="23.4375" transform="matrix(1 8.19589e-08 9.3251e-08 -1 67.6875 85)" fill="#2C2C27"/>
<rect width="22.5625" height="23.4375" transform="matrix(-1 -1.40521e-07 -2.18127e-07 1 225.625 0)" fill="#AFAFAF"/>
<rect width="22.5625" height="23.4375" transform="matrix(1 8.19589e-08 9.3251e-08 -1 338.438 85)" fill="#7F3AEE"/>
<rect width="22.5625" height="23.4375" transform="matrix(-1 -1.72772e-07 -1.7741e-07 1 203.062 61.5625)" fill="#66C399"/>
<rect width="22.5625" height="23.4375" transform="matrix(-1 -1.72772e-07 -1.7741e-07 1 112.812 23.125)" fill="#66C399"/>
</svg>
