<svg width="520" height="347" viewBox="0 0 520 347" fill="none" xmlns="http://www.w3.org/2000/svg">
<path d="M0 0H519.58V346.91H0V0Z" fill="#66CC99"/>
<path d="M494.578 173.373H469.578V198.373H494.578V173.373Z" fill="#2C2C27"/>
<path d="M494.578 296.908H469.578V321.908H494.578V296.908Z" fill="#7F3AEE"/>
<path d="M494.578 24.7676H469.578V49.7676H494.578V24.7676Z" fill="#7F3AEE"/>
<path d="M420.217 247.141H395.217V272.141H420.217V247.141Z" fill="#F4F4F4"/>
<path d="M420.217 74.3027H395.217V99.3027H420.217V74.3027Z" fill="#F4F4F4"/>
<path d="M520 92H495V117H520V92Z" fill="#F4F4F4"/>
<path d="M395.535 321.908H370.535V346.908H395.535V321.908Z" fill="#2C2C27"/>
<path d="M395.535 247.141H370.535V272.141H395.535V247.141Z" fill="#7F3AEE"/>
<path d="M346.174 197.605H321.174V222.605H346.174V197.605Z" fill="#2C2C27"/>
<path d="M346.174 24.7676H321.174V49.7676H346.174V24.7676Z" fill="#F4F4F4"/>
<path d="M346.174 0H321.174V25H346.174V0Z" fill="#2C2C27"/>
<path d="M296.811 296.908H271.811V321.908H296.811V296.908Z" fill="#7F3AEE"/>
<path d="M247.449 74.3027H222.449V99.3027H247.449V74.3027Z" fill="#7F3AEE"/>
<path d="M198.086 321.908H173.086V346.908H198.086V321.908Z" fill="#F4F4F4"/>
<path d="M173.406 24.7676H148.406V49.7676H173.406V24.7676Z" fill="#F4F4F4"/>
<path d="M99.3613 296.908H74.3613V321.908H99.3613V296.908Z" fill="#2C2C27"/>
<path d="M49.6797 99.0703H24.6797V124.07H49.6797V99.0703Z" fill="#7F3AEE"/>
<path d="M99.3613 49.5352H74.3613V74.5352H99.3613V49.5352Z" fill="#2C2C27"/>
<path d="M49.6797 0H24.6797V25H49.6797V0Z" fill="#F4F4F4"/>
<path d="M25 222.373H0V247.373H25V222.373Z" fill="#7F3AEE"/>
<path d="M86.92 190.48L78.12 180.72C77.8 180.773 77.4533 180.8 77.08 180.8C76.7067 180.853 76.36 180.88 76.04 180.88C70.3333 180.88 65.4267 179.813 61.32 177.68C57.2133 175.547 54.0667 172.373 51.88 168.16C49.6933 163.893 48.6 158.667 48.6 152.48C48.6 146.133 49.7467 140.88 52.04 136.72C54.3333 132.507 57.6133 129.36 61.88 127.28C66.2 125.147 71.3733 124.08 77.4 124.08C83.4267 124.08 88.5733 125.147 92.84 127.28C97.16 129.36 100.467 132.507 102.76 136.72C105.053 140.88 106.2 146.133 106.2 152.48C106.2 158.987 104.973 164.373 102.52 168.64C100.12 172.853 96.7067 176.027 92.28 178.16L104.68 190.48H86.92ZM77.4 169.76C79.6933 169.76 81.72 169.413 83.48 168.72C85.24 168.027 86.7067 167.013 87.88 165.68C89.1067 164.347 90.0133 162.72 90.6 160.8C91.1867 158.88 91.48 156.72 91.48 154.32V150.8C91.48 148.347 91.1867 146.16 90.6 144.24C90.0133 142.32 89.1067 140.693 87.88 139.36C86.7067 138.027 85.24 137.013 83.48 136.32C81.72 135.627 79.6933 135.28 77.4 135.28C75.0533 135.28 73 135.627 71.24 136.32C69.48 137.013 68.0133 138.027 66.84 139.36C65.6667 140.693 64.7867 142.32 64.2 144.24C63.6133 146.16 63.32 148.347 63.32 150.8V154.32C63.32 156.72 63.6133 158.88 64.2 160.8C64.7867 162.72 65.6667 164.347 66.84 165.68C68.0133 167.013 69.48 168.027 71.24 168.72C73 169.413 75.0533 169.76 77.4 169.76Z" fill="#F4F4F4"/>
<path d="M142.646 180.96C137.366 180.96 132.806 180.133 128.966 178.48C125.179 176.827 122.272 174.347 120.246 171.04C118.219 167.733 117.206 163.627 117.206 158.72V125.04H131.606V158.4C131.606 161.92 132.539 164.693 134.406 166.72C136.272 168.747 139.019 169.76 142.646 169.76C146.272 169.76 149.046 168.747 150.966 166.72C152.886 164.693 153.846 161.92 153.846 158.4V125.04H168.166V158.72C168.166 163.627 167.152 167.733 165.126 171.04C163.099 174.347 160.192 176.827 156.406 178.48C152.619 180.133 148.032 180.96 142.646 180.96Z" fill="#F4F4F4"/>
<path d="M181.622 180V125.04H195.942V180H181.622Z" fill="#F4F4F4"/>
<path d="M209.55 180V125.04H223.87V168.24H251.79V180H209.55Z" fill="#F4F4F4"/>
<path d="M260.994 180V125.04H281.874L288.514 149.52C288.78 150.373 289.1 151.547 289.474 153.04C289.847 154.48 290.22 156 290.594 157.6C290.967 159.2 291.287 160.64 291.554 161.92H292.194C292.407 160.907 292.674 159.707 292.994 158.32C293.314 156.88 293.66 155.387 294.034 153.84C294.407 152.24 294.754 150.773 295.074 149.44L301.794 125.04H322.114V180H308.194V156.56C308.194 154.267 308.194 151.947 308.194 149.6C308.247 147.253 308.3 145.12 308.354 143.2C308.407 141.28 308.434 139.893 308.434 139.04H307.794C307.634 139.84 307.367 141.013 306.994 142.56C306.674 144.053 306.3 145.627 305.874 147.28C305.5 148.88 305.154 150.267 304.834 151.44L296.834 180H285.314L277.234 151.44C276.967 150.373 276.647 149.093 276.274 147.6C275.9 146.107 275.527 144.587 275.154 143.04C274.834 141.493 274.54 140.187 274.274 139.12H273.634C273.687 140.507 273.74 142.213 273.794 144.24C273.847 146.213 273.9 148.293 273.954 150.48C274.007 152.613 274.034 154.64 274.034 156.56V180H260.994Z" fill="#F4F4F4"/>
<path d="M335.879 180V125.04H381.239V136.24H350.199V146.56H377.319V157.52H350.199V168.8H381.799V180H335.879Z" fill="#F4F4F4"/>
<path d="M416.056 180.96C412.59 180.96 409.336 180.64 406.296 180C403.256 179.413 400.563 178.427 398.216 177.04C395.923 175.653 394.11 173.84 392.776 171.6C391.443 169.307 390.776 166.507 390.776 163.2C390.776 162.987 390.776 162.747 390.776 162.48C390.776 162.213 390.803 162 390.856 161.84H404.696C404.696 162 404.67 162.213 404.616 162.48C404.616 162.693 404.616 162.88 404.616 163.04C404.616 164.747 405.043 166.133 405.896 167.2C406.803 168.213 408.056 168.96 409.656 169.44C411.256 169.867 413.123 170.08 415.256 170.08C416.43 170.08 417.523 170.027 418.536 169.92C419.55 169.813 420.456 169.627 421.256 169.36C422.056 169.093 422.75 168.773 423.336 168.4C423.976 167.973 424.43 167.493 424.696 166.96C425.016 166.373 425.176 165.707 425.176 164.96C425.176 163.733 424.696 162.72 423.736 161.92C422.83 161.12 421.576 160.453 419.976 159.92C418.43 159.387 416.67 158.88 414.696 158.4C412.723 157.92 410.67 157.413 408.536 156.88C406.403 156.347 404.35 155.68 402.376 154.88C400.403 154.08 398.616 153.067 397.016 151.84C395.47 150.613 394.216 149.093 393.256 147.28C392.35 145.413 391.896 143.173 391.896 140.56C391.896 137.68 392.51 135.2 393.736 133.12C394.963 130.987 396.643 129.253 398.776 127.92C400.963 126.587 403.47 125.627 406.296 125.04C409.123 124.4 412.136 124.08 415.336 124.08C418.483 124.08 421.416 124.4 424.136 125.04C426.91 125.68 429.363 126.693 431.496 128.08C433.63 129.413 435.283 131.12 436.456 133.2C437.683 135.227 438.323 137.68 438.376 140.56V141.52H424.616V140.96C424.616 139.733 424.27 138.667 423.576 137.76C422.936 136.8 421.95 136.053 420.616 135.52C419.283 134.933 417.63 134.64 415.656 134.64C413.683 134.64 412.003 134.827 410.616 135.2C409.283 135.573 408.243 136.107 407.496 136.8C406.803 137.493 406.456 138.32 406.456 139.28C406.456 140.453 406.91 141.413 407.816 142.16C408.776 142.907 410.056 143.547 411.656 144.08C413.256 144.613 415.043 145.12 417.016 145.6C418.99 146.027 421.016 146.507 423.096 147.04C425.23 147.52 427.283 148.16 429.256 148.96C431.23 149.707 433.016 150.693 434.616 151.92C436.216 153.093 437.47 154.56 438.376 156.32C439.336 158.08 439.816 160.213 439.816 162.72C439.816 167.093 438.776 170.613 436.696 173.28C434.67 175.947 431.843 177.893 428.216 179.12C424.643 180.347 420.59 180.96 416.056 180.96Z" fill="#F4F4F4"/>
<path d="M51 260V205.04H82.92C86.9733 205.04 90.36 205.813 93.08 207.36C95.8 208.853 97.8267 210.933 99.16 213.6C100.547 216.213 101.24 219.147 101.24 222.4C101.24 225.92 100.413 229.067 98.76 231.84C97.16 234.56 94.8933 236.693 91.96 238.24L103 260H87L77.88 240.64H65.32V260H51ZM65.32 230H80.12C82.0933 230 83.6667 229.36 84.84 228.08C86.0667 226.747 86.68 224.987 86.68 222.8C86.68 221.36 86.4133 220.133 85.88 219.12C85.3467 218.107 84.6 217.333 83.64 216.8C82.68 216.213 81.5067 215.92 80.12 215.92H65.32V230Z" fill="#F4F4F4"/>
<path d="M138.844 260.96C132.817 260.96 127.644 259.92 123.324 257.84C119.057 255.707 115.777 252.533 113.484 248.32C111.19 244.107 110.044 238.827 110.044 232.48C110.044 226.133 111.19 220.88 113.484 216.72C115.777 212.507 119.057 209.36 123.324 207.28C127.644 205.147 132.817 204.08 138.844 204.08C144.87 204.08 150.017 205.147 154.284 207.28C158.604 209.36 161.91 212.507 164.204 216.72C166.497 220.88 167.644 226.133 167.644 232.48C167.644 238.827 166.497 244.107 164.204 248.32C161.91 252.533 158.604 255.707 154.284 257.84C150.017 259.92 144.87 260.96 138.844 260.96ZM138.844 249.76C141.137 249.76 143.164 249.413 144.924 248.72C146.684 248.027 148.15 247.013 149.324 245.68C150.55 244.347 151.457 242.72 152.044 240.8C152.63 238.88 152.924 236.72 152.924 234.32V230.8C152.924 228.347 152.63 226.16 152.044 224.24C151.457 222.32 150.55 220.693 149.324 219.36C148.15 218.027 146.684 217.013 144.924 216.32C143.164 215.627 141.137 215.28 138.844 215.28C136.497 215.28 134.444 215.627 132.684 216.32C130.924 217.013 129.457 218.027 128.284 219.36C127.11 220.693 126.23 222.32 125.644 224.24C125.057 226.16 124.764 228.347 124.764 230.8V234.32C124.764 236.72 125.057 238.88 125.644 240.8C126.23 242.72 127.11 244.347 128.284 245.68C129.457 247.013 130.924 248.027 132.684 248.72C134.444 249.413 136.497 249.76 138.844 249.76Z" fill="#F4F4F4"/>
<path d="M204.089 260.96C198.169 260.96 193.129 259.947 188.969 257.92C184.863 255.84 181.743 252.693 179.609 248.48C177.476 244.267 176.409 238.933 176.409 232.48C176.409 222.987 178.783 215.893 183.529 211.2C188.329 206.453 195.183 204.08 204.089 204.08C209.049 204.08 213.449 204.933 217.289 206.64C221.129 208.293 224.116 210.8 226.249 214.16C228.436 217.467 229.529 221.6 229.529 226.56H215.529C215.529 224.213 215.049 222.213 214.089 220.56C213.183 218.853 211.876 217.547 210.169 216.64C208.516 215.733 206.489 215.28 204.089 215.28C201.103 215.28 198.649 215.893 196.729 217.12C194.809 218.347 193.396 220.107 192.489 222.4C191.583 224.693 191.129 227.467 191.129 230.72V234.32C191.129 237.573 191.583 240.373 192.489 242.72C193.396 245.013 194.783 246.773 196.649 248C198.569 249.173 201.023 249.76 204.009 249.76C206.569 249.76 208.729 249.333 210.489 248.48C212.303 247.627 213.663 246.373 214.569 244.72C215.529 243.013 216.009 240.987 216.009 238.64H229.529C229.529 243.6 228.463 247.733 226.329 251.04C224.249 254.347 221.289 256.827 217.449 258.48C213.663 260.133 209.209 260.96 204.089 260.96Z" fill="#F4F4F4"/>
<path d="M240.566 260V205.04H254.886V229.44L276.646 205.04H294.406L273.926 227.52L294.806 260H277.846L264.006 237.28L254.886 245.68V260H240.566Z" fill="#F4F4F4"/>
</svg>
