<svg width="521" height="347" viewBox="0 0 521 347" fill="none" xmlns="http://www.w3.org/2000/svg">
<path d="M1 0H520.58V346.91H1V0Z" fill="#7F3AEE"/>
<path d="M519.578 222.373H494.578V247.373H519.578V222.373Z" fill="#AFAFAF"/>
<path d="M469.578 0H444.578V25H469.578V0Z" fill="#F4F4F4"/>
<path d="M494.578 296.908H469.578V321.908H494.578V296.908Z" fill="#66CC99"/>
<path d="M444.898 222.373H419.898V247.373H444.898V222.373Z" fill="#2C2C27"/>
<path d="M494.578 74.3027H469.578V99.3027H494.578V74.3027Z" fill="#66CC99"/>
<path d="M444.898 197.605H419.898V222.605H444.898V197.605Z" fill="#F4F4F4"/>
<path d="M420.217 321.908H395.217V346.908H420.217V321.908Z" fill="#2C2C27"/>
<path d="M395.535 271.908H370.535V296.908H395.535V271.908Z" fill="#AFAFAF"/>
<path d="M370.854 24.7676H345.854V49.7676H370.854V24.7676Z" fill="#2C2C27"/>
<path d="M346.174 24.7676H321.174V49.7676H346.174V24.7676Z" fill="#AFAFAF"/>
<path d="M272.131 321.908H247.131V346.908H272.131V321.908Z" fill="#AFAFAF"/>
<path d="M272.131 49.5352H247.131V74.5352H272.131V49.5352Z" fill="#66CC99"/>
<path d="M222.768 0H197.768V25H222.768V0Z" fill="#2C2C27"/>
<path d="M173.406 296.908H148.406V321.908H173.406V296.908Z" fill="#F4F4F4"/>
<path d="M173.406 74.3027H148.406V99.3027H173.406V74.3027Z" fill="#2C2C27"/>
<path d="M124.043 24.7676H99.043V49.7676H124.043V24.7676Z" fill="#F4F4F4"/>
<path d="M49.6797 173.373H24.6797V198.373H49.6797V173.373Z" fill="#AFAFAF"/>
<path d="M49.6797 321.908H24.6797V346.908H49.6797V321.908Z" fill="#66CC99"/>
<path d="M74.6816 321.908H49.6816V346.908H74.6816V321.908Z" fill="#2C2C27"/>
<path d="M25 271.908H0V296.908H25V271.908Z" fill="#AFAFAF"/>
<path d="M25 74.3027H0V99.3027H25V74.3027Z" fill="#F4F4F4"/>
<path d="M74.6816 0H49.6816V25H74.6816V0Z" fill="#AFAFAF"/>
<path d="M73.8 180.96C70.3333 180.96 67.08 180.64 64.04 180C61 179.413 58.3067 178.427 55.96 177.04C53.6667 175.653 51.8533 173.84 50.52 171.6C49.1867 169.307 48.52 166.507 48.52 163.2C48.52 162.987 48.52 162.747 48.52 162.48C48.52 162.213 48.5467 162 48.6 161.84H62.44C62.44 162 62.4133 162.213 62.36 162.48C62.36 162.693 62.36 162.88 62.36 163.04C62.36 164.747 62.7867 166.133 63.64 167.2C64.5467 168.213 65.8 168.96 67.4 169.44C69 169.867 70.8667 170.08 73 170.08C74.1733 170.08 75.2667 170.027 76.28 169.92C77.2933 169.813 78.2 169.627 79 169.36C79.8 169.093 80.4933 168.773 81.08 168.4C81.72 167.973 82.1733 167.493 82.44 166.96C82.76 166.373 82.92 165.707 82.92 164.96C82.92 163.733 82.44 162.72 81.48 161.92C80.5733 161.12 79.32 160.453 77.72 159.92C76.1733 159.387 74.4133 158.88 72.44 158.4C70.4667 157.92 68.4133 157.413 66.28 156.88C64.1467 156.347 62.0933 155.68 60.12 154.88C58.1467 154.08 56.36 153.067 54.76 151.84C53.2133 150.613 51.96 149.093 51 147.28C50.0933 145.413 49.64 143.173 49.64 140.56C49.64 137.68 50.2533 135.2 51.48 133.12C52.7067 130.987 54.3867 129.253 56.52 127.92C58.7067 126.587 61.2133 125.627 64.04 125.04C66.8667 124.4 69.88 124.08 73.08 124.08C76.2267 124.08 79.16 124.4 81.88 125.04C84.6533 125.68 87.1067 126.693 89.24 128.08C91.3733 129.413 93.0267 131.12 94.2 133.2C95.4267 135.227 96.0667 137.68 96.12 140.56V141.52H82.36V140.96C82.36 139.733 82.0133 138.667 81.32 137.76C80.68 136.8 79.6933 136.053 78.36 135.52C77.0267 134.933 75.3733 134.64 73.4 134.64C71.4267 134.64 69.7467 134.827 68.36 135.2C67.0267 135.573 65.9867 136.107 65.24 136.8C64.5467 137.493 64.2 138.32 64.2 139.28C64.2 140.453 64.6533 141.413 65.56 142.16C66.52 142.907 67.8 143.547 69.4 144.08C71 144.613 72.7867 145.12 74.76 145.6C76.7333 146.027 78.76 146.507 80.84 147.04C82.9733 147.52 85.0267 148.16 87 148.96C88.9733 149.707 90.76 150.693 92.36 151.92C93.96 153.093 95.2133 154.56 96.12 156.32C97.08 158.08 97.56 160.213 97.56 162.72C97.56 167.093 96.52 170.613 94.44 173.28C92.4133 175.947 89.5867 177.893 85.96 179.12C82.3867 180.347 78.3333 180.96 73.8 180.96Z" fill="#F4F4F4"/>
<path d="M133.661 180.96C128.381 180.96 123.821 180.133 119.981 178.48C116.195 176.827 113.288 174.347 111.261 171.04C109.235 167.733 108.221 163.627 108.221 158.72V125.04H122.621V158.4C122.621 161.92 123.555 164.693 125.421 166.72C127.288 168.747 130.035 169.76 133.661 169.76C137.288 169.76 140.061 168.747 141.981 166.72C143.901 164.693 144.861 161.92 144.861 158.4V125.04H159.181V158.72C159.181 163.627 158.168 167.733 156.141 171.04C154.115 174.347 151.208 176.827 147.421 178.48C143.635 180.133 139.048 180.96 133.661 180.96Z" fill="#F4F4F4"/>
<path d="M172.637 180V125.04H193.518L200.158 149.52C200.424 150.373 200.744 151.547 201.117 153.04C201.491 154.48 201.864 156 202.238 157.6C202.611 159.2 202.931 160.64 203.197 161.92H203.837C204.051 160.907 204.317 159.707 204.637 158.32C204.958 156.88 205.304 155.387 205.678 153.84C206.051 152.24 206.397 150.773 206.717 149.44L213.438 125.04H233.758V180H219.837V156.56C219.837 154.267 219.837 151.947 219.837 149.6C219.891 147.253 219.944 145.12 219.997 143.2C220.051 141.28 220.077 139.893 220.077 139.04H219.438C219.277 139.84 219.011 141.013 218.637 142.56C218.318 144.053 217.944 145.627 217.518 147.28C217.144 148.88 216.797 150.267 216.477 151.44L208.477 180H196.958L188.878 151.44C188.611 150.373 188.291 149.093 187.917 147.6C187.544 146.107 187.171 144.587 186.798 143.04C186.477 141.493 186.184 140.187 185.917 139.12H185.277C185.331 140.507 185.384 142.213 185.438 144.24C185.491 146.213 185.544 148.293 185.598 150.48C185.651 152.613 185.677 154.64 185.677 156.56V180H172.637Z" fill="#F4F4F4"/>
<path d="M247.363 180V125.04H268.242L274.883 149.52C275.149 150.373 275.469 151.547 275.842 153.04C276.216 154.48 276.589 156 276.962 157.6C277.336 159.2 277.656 160.64 277.923 161.92H278.562C278.776 160.907 279.043 159.707 279.363 158.32C279.683 156.88 280.029 155.387 280.402 153.84C280.776 152.24 281.122 150.773 281.443 149.44L288.163 125.04H308.483V180H294.562V156.56C294.562 154.267 294.562 151.947 294.562 149.6C294.616 147.253 294.669 145.12 294.723 143.2C294.776 141.28 294.803 139.893 294.803 139.04H294.163C294.003 139.84 293.736 141.013 293.363 142.56C293.043 144.053 292.669 145.627 292.242 147.28C291.869 148.88 291.523 150.267 291.203 151.44L283.203 180H271.682L263.603 151.44C263.336 150.373 263.016 149.093 262.643 147.6C262.269 146.107 261.896 144.587 261.522 143.04C261.202 141.493 260.909 140.187 260.643 139.12H260.003C260.056 140.507 260.109 142.213 260.163 144.24C260.216 146.213 260.269 148.293 260.323 150.48C260.376 152.613 260.402 154.64 260.402 156.56V180H247.363Z" fill="#F4F4F4"/>
<path d="M322.247 180V125.04H367.607V136.24H336.568V146.56H363.688V157.52H336.568V168.8H368.167V180H322.247Z" fill="#F4F4F4"/>
<path d="M379.625 180V125.04H411.545C415.598 125.04 418.985 125.813 421.705 127.36C424.425 128.853 426.452 130.933 427.785 133.6C429.172 136.213 429.865 139.147 429.865 142.4C429.865 145.92 429.038 149.067 427.385 151.84C425.785 154.56 423.518 156.693 420.585 158.24L431.625 180H415.625L406.505 160.64H393.945V180H379.625ZM393.945 150H408.745C410.718 150 412.292 149.36 413.465 148.08C414.692 146.747 415.305 144.987 415.305 142.8C415.305 141.36 415.038 140.133 414.505 139.12C413.972 138.107 413.225 137.333 412.265 136.8C411.305 136.213 410.132 135.92 408.745 135.92H393.945V150Z" fill="#F4F4F4"/>
<path d="M73.8 260.96C70.3333 260.96 67.08 260.64 64.04 260C61 259.413 58.3067 258.427 55.96 257.04C53.6667 255.653 51.8533 253.84 50.52 251.6C49.1867 249.307 48.52 246.507 48.52 243.2C48.52 242.987 48.52 242.747 48.52 242.48C48.52 242.213 48.5467 242 48.6 241.84H62.44C62.44 242 62.4133 242.213 62.36 242.48C62.36 242.693 62.36 242.88 62.36 243.04C62.36 244.747 62.7867 246.133 63.64 247.2C64.5467 248.213 65.8 248.96 67.4 249.44C69 249.867 70.8667 250.08 73 250.08C74.1733 250.08 75.2667 250.027 76.28 249.92C77.2933 249.813 78.2 249.627 79 249.36C79.8 249.093 80.4933 248.773 81.08 248.4C81.72 247.973 82.1733 247.493 82.44 246.96C82.76 246.373 82.92 245.707 82.92 244.96C82.92 243.733 82.44 242.72 81.48 241.92C80.5733 241.12 79.32 240.453 77.72 239.92C76.1733 239.387 74.4133 238.88 72.44 238.4C70.4667 237.92 68.4133 237.413 66.28 236.88C64.1467 236.347 62.0933 235.68 60.12 234.88C58.1467 234.08 56.36 233.067 54.76 231.84C53.2133 230.613 51.96 229.093 51 227.28C50.0933 225.413 49.64 223.173 49.64 220.56C49.64 217.68 50.2533 215.2 51.48 213.12C52.7067 210.987 54.3867 209.253 56.52 207.92C58.7067 206.587 61.2133 205.627 64.04 205.04C66.8667 204.4 69.88 204.08 73.08 204.08C76.2267 204.08 79.16 204.4 81.88 205.04C84.6533 205.68 87.1067 206.693 89.24 208.08C91.3733 209.413 93.0267 211.12 94.2 213.2C95.4267 215.227 96.0667 217.68 96.12 220.56V221.52H82.36V220.96C82.36 219.733 82.0133 218.667 81.32 217.76C80.68 216.8 79.6933 216.053 78.36 215.52C77.0267 214.933 75.3733 214.64 73.4 214.64C71.4267 214.64 69.7467 214.827 68.36 215.2C67.0267 215.573 65.9867 216.107 65.24 216.8C64.5467 217.493 64.2 218.32 64.2 219.28C64.2 220.453 64.6533 221.413 65.56 222.16C66.52 222.907 67.8 223.547 69.4 224.08C71 224.613 72.7867 225.12 74.76 225.6C76.7333 226.027 78.76 226.507 80.84 227.04C82.9733 227.52 85.0267 228.16 87 228.96C88.9733 229.707 90.76 230.693 92.36 231.92C93.96 233.093 95.2133 234.56 96.12 236.32C97.08 238.08 97.56 240.213 97.56 242.72C97.56 247.093 96.52 250.613 94.44 253.28C92.4133 255.947 89.5867 257.893 85.96 259.12C82.3867 260.347 78.3333 260.96 73.8 260.96Z" fill="#F4F4F4"/>
<path d="M134.781 260.96C128.755 260.96 123.581 259.92 119.261 257.84C114.995 255.707 111.715 252.533 109.421 248.32C107.128 244.107 105.981 238.827 105.981 232.48C105.981 226.133 107.128 220.88 109.421 216.72C111.715 212.507 114.995 209.36 119.261 207.28C123.581 205.147 128.755 204.08 134.781 204.08C140.808 204.08 145.955 205.147 150.221 207.28C154.541 209.36 157.848 212.507 160.141 216.72C162.435 220.88 163.581 226.133 163.581 232.48C163.581 238.827 162.435 244.107 160.141 248.32C157.848 252.533 154.541 255.707 150.221 257.84C145.955 259.92 140.808 260.96 134.781 260.96ZM134.781 249.76C137.075 249.76 139.101 249.413 140.861 248.72C142.621 248.027 144.088 247.013 145.261 245.68C146.488 244.347 147.395 242.72 147.981 240.8C148.568 238.88 148.861 236.72 148.861 234.32V230.8C148.861 228.347 148.568 226.16 147.981 224.24C147.395 222.32 146.488 220.693 145.261 219.36C144.088 218.027 142.621 217.013 140.861 216.32C139.101 215.627 137.075 215.28 134.781 215.28C132.435 215.28 130.381 215.627 128.621 216.32C126.861 217.013 125.395 218.027 124.221 219.36C123.048 220.693 122.168 222.32 121.581 224.24C120.995 226.16 120.701 228.347 120.701 230.8V234.32C120.701 236.72 120.995 238.88 121.581 240.8C122.168 242.72 123.048 244.347 124.221 245.68C125.395 247.013 126.861 248.027 128.621 248.72C130.381 249.413 132.435 249.76 134.781 249.76Z" fill="#F4F4F4"/>
<path d="M200.027 260.96C194.747 260.96 190.187 260.133 186.347 258.48C182.56 256.827 179.654 254.347 177.627 251.04C175.6 247.733 174.587 243.627 174.587 238.72V205.04H188.987V238.4C188.987 241.92 189.92 244.693 191.787 246.72C193.654 248.747 196.4 249.76 200.027 249.76C203.654 249.76 206.427 248.747 208.347 246.72C210.267 244.693 211.227 241.92 211.227 238.4V205.04H225.547V238.72C225.547 243.627 224.534 247.733 222.507 251.04C220.48 254.347 217.574 256.827 213.787 258.48C210 260.133 205.414 260.96 200.027 260.96Z" fill="#F4F4F4"/>
<path d="M239.003 260V205.04H251.723L271.723 230.56C272.096 230.987 272.576 231.6 273.163 232.4C273.803 233.2 274.416 234.027 275.003 234.88C275.59 235.68 276.016 236.32 276.283 236.8L276.683 236.72C276.683 235.547 276.683 234.427 276.683 233.36C276.683 232.24 276.683 231.307 276.683 230.56V205.04H289.963V260H277.323L256.123 233.12C255.43 232.267 254.763 231.387 254.123 230.48C253.536 229.573 253.056 228.827 252.683 228.24L252.283 228.32C252.283 229.173 252.283 230.053 252.283 230.96C252.283 231.813 252.283 232.533 252.283 233.12V260H239.003Z" fill="#F4F4F4"/>
<path d="M303.572 260V205.04H326.532C332.505 205.04 337.545 206.027 341.652 208C345.812 209.973 348.959 212.987 351.092 217.04C353.279 221.04 354.372 226.187 354.372 232.48C354.372 238.72 353.279 243.893 351.092 248C348.959 252.053 345.812 255.067 341.652 257.04C337.545 259.013 332.505 260 326.532 260H303.572ZM317.892 248.8H326.372C328.612 248.8 330.559 248.48 332.212 247.84C333.865 247.2 335.252 246.267 336.372 245.04C337.492 243.813 338.319 242.293 338.852 240.48C339.385 238.667 339.652 236.587 339.652 234.24V230.88C339.652 228.48 339.385 226.373 338.852 224.56C338.319 222.747 337.492 221.227 336.372 220C335.252 218.773 333.865 217.84 332.212 217.2C330.559 216.56 328.612 216.24 326.372 216.24H317.892V248.8Z" fill="#F4F4F4"/>
</svg>
