<?xml version="1.0" encoding="utf-8"?>
<!-- Generator: Adobe Illustrator 25.4.1, SVG Export Plug-In . SVG Version: 6.00 Build 0)  -->
<svg version="1.1" id="Capa_1" xmlns="http://www.w3.org/2000/svg" xmlns:xlink="http://www.w3.org/1999/xlink" x="0px" y="0px"
	 viewBox="0 0 518 321" style="enable-background:new 0 0 518 321;" xml:space="preserve">
<style type="text/css">
	.st0{fill:#F4F4F4;}
	.st1{fill:#66CC99;}
</style>
<path class="st0" d="M0,0h518v321H0V0z"/>
<path class="st1" d="M443.9,147.7V123h-49.4V98.4h-24.7V73.7l-24.7,0V49H172.4v24.7l-24.7,0v24.7H123V123H98.4v24.7l-49.4,0v74h24.7
	v24.7H123v24.7h74v-24.7h148.1v24.7h74v-24.7h25.6v-24.7h23.8v-74L443.9,147.7z M172.4,246.4h-24.7v-24.7h24.7V246.4z M246.4,123.1
	h-74V98.2h24.7V73.3h49.4V123.1z M344.8,123.1h-74V73.3h49.4v24.9h24.7V123.1z M394.5,246.4h-24.7v-24.7h24.7V246.4z"/>
</svg>
